<?xml version="1.0" encoding="UTF-8"?>
<svg width="50px" height="53px" viewBox="0 0 50 53" version="1.1" xmlns="http://www.w3.org/2000/svg" xmlns:xlink="http://www.w3.org/1999/xlink">
    <title>icone_parcela_baixa</title>
    <g id="Page-1" stroke="none" stroke-width="1" fill="none" fill-rule="evenodd">
        <g id="Desktop-HD" transform="translate(-219.000000, -563.000000)">
            <g id="Group-9" transform="translate(219.218447, 557.889068)">
                <g id="icone_parcela_baixa" transform="translate(0.000000, 6.000000)">
                    <polygon id="Path-5" fill="#FFFFFF" points="39.5026817 18.5242827 39.5026817 26.7976145 45.6596225 26.7976145 25.3619619 47.0150679 5.89491661 27.6249477 13.7407855 27.6249477 13.7407855 14.3876169"></polygon>
                    <path d="M18.4082856,35.1000352 L18.4082856,30.6601935 L19.5319351,30.6601935 C20.1618598,30.6601935 20.4172346,30.7439641 20.6726095,31.2130795 L22.2218838,34.2120668 C22.6134586,34.9660022 23.0050334,35.1000352 23.907358,35.1000352 L25.0820824,35.1000352 L25.0820824,33.2403279 L24.8607575,33.2403279 C24.4862077,33.2403279 24.1967828,33.2068197 24.0095079,32.8549832 L22.8347835,30.5596688 C22.6134586,30.1240617 22.2389088,29.9565205 22.2389088,29.9565205 L22.2389088,29.9230123 C22.7496585,29.8224875 24.2478578,28.9345192 24.2478578,26.7899919 C24.2478578,24.5449399 22.6985835,23.2046103 20.4853346,23.2046103 L15.0713872,23.2046103 L15.0713872,25.0643176 L16.1780117,25.0643176 L16.1780117,35.1000352 L18.4082856,35.1000352 Z M20.0687518,28.3026496 L18.4082856,28.3026496 L18.4082856,24.9039567 L20.1006838,24.9039567 C21.1225092,24.9039567 21.745184,25.5163338 21.745184,26.5879937 C21.745184,27.674963 21.1225092,28.3026496 20.0687518,28.3026496 Z M30.1934175,36.7993816 L30.1934175,35.2397841 C32.1593157,34.9546963 33.4243284,33.5124879 33.4243284,31.8522712 C33.4243284,27.8107335 27.7146764,28.3305993 27.7146764,26.2008264 C27.7146764,25.496492 28.4668461,24.993396 29.4925321,24.993396 C30.2959861,24.993396 31.0139663,25.3623331 31.0139663,25.9157386 L31.0139663,26.4523744 L33.0311487,26.4523744 L33.0311487,25.3455632 C33.0311487,23.9033547 31.4926198,23.2325601 30.1934175,23.0648615 L30.1934175,21.5052639 L28.6719833,21.5052639 L28.6719833,23.0648615 C26.8086538,23.3499492 25.4581672,24.5573795 25.4581672,26.2343661 C25.4581672,30.0914352 31.1678192,29.8398873 31.1678192,31.9193506 C31.1678192,32.8081535 30.4156495,33.3280194 29.424153,33.3280194 C27.7574133,33.3280194 26.7834477,31.8675865 26.6528136,31.6589532 L26.6377061,31.6342629 L26.6377061,31.6342629 L25.0820824,32.9087727 C25.0820824,32.9087727 26.1761474,34.9211566 28.6719833,35.2565539 L28.6719833,36.7993816 L30.1934175,36.7993816 Z" id="R$" fill="#339400" fill-rule="nonzero"></path>
                    <rect id="Rectangle" fill="#FFFFFF" x="13.0321715" y="0.11310707" width="7.1372549" height="7.1372549" rx="3.56862745"></rect>
                    <rect id="Rectangle" fill="#FFFFFF" x="23.2282499" y="6.23075413" width="7.1372549" height="7.1372549" rx="3.56862745"></rect>
                    <rect id="Rectangle" fill="#FFFFFF" x="33.4243284" y="2.15232276" width="7.1372549" height="7.1372549" rx="3.56862745"></rect>
                    <line x1="44.7029371" y1="35.8348345" x2="44.7029371" y2="42.8264311" id="Path-2" stroke="#000000" stroke-width="2" stroke-linecap="round" stroke-linejoin="round"></line>
                    <line x1="47.9895429" y1="39.2233645" x2="40.9979462" y2="39.2233645" id="Path-2-Copy" stroke="#000000" stroke-width="2" stroke-linecap="round" stroke-linejoin="round"></line>
                    <polyline id="Path-3" stroke="#000000" stroke-width="2" stroke-linecap="round" stroke-linejoin="round" points="11.0151289 12.3484012 11.365885 29.85922 3.85570093 29.85922 24.7576617 51.0934992 45.6596225 29.85922 37.6191707 29.85922 37.6191707 20.2665408"></polyline>
                    <line x1="37.5027597" y1="16.4268326" x2="37.5027597" y2="8.26996981" id="Path-4" stroke="#000000" stroke-width="2" stroke-linecap="round"></line>
                    <line x1="15.9737162" y1="14.7460633" x2="15.9737162" y2="11.3473705" id="Path-4-Copy" stroke="#000000" stroke-width="2" stroke-linecap="round"></line>
                    <line x1="10.875677" y1="7.57575032" x2="10.875677" y2="2.22280915" id="Path-4-Copy-3" stroke="#000000" stroke-width="2" stroke-linecap="round"></line>
                    <line x1="27.3066813" y1="11.3287933" x2="27.3066813" y2="3.1719306" id="Path-4-Copy-2" stroke="#000000" stroke-width="2" stroke-linecap="round"></line>
                    <g id="Group-3" transform="translate(0.796877, 37.838597)" stroke="#000000" stroke-linecap="round" stroke-linejoin="round" stroke-width="2">
                        <line x1="3.87365321" y1="1.05506074" x2="3.87365321" y2="8.04665738" id="Path-2"></line>
                        <line x1="7.42795958" y1="4.73983013" x2="0.436362939" y2="4.73983013" id="Path-2-Copy"></line>
                    </g>
                </g>
            </g>
        </g>
    </g>
</svg>