<?xml version="1.0" encoding="UTF-8"?>
<svg width="47px" height="41px" viewBox="0 0 47 41" version="1.1" xmlns="http://www.w3.org/2000/svg" xmlns:xlink="http://www.w3.org/1999/xlink">
    <title>icone_bankY</title>
    <g id="Page-1" stroke="none" stroke-width="1" fill="none" fill-rule="evenodd">
        <g id="Desktop-HD-Copy" transform="translate(-315.000000, -1021.000000)" fill-rule="nonzero">
            <g id="icone_bankY" transform="translate(315.000000, 1021.000000)">
                <g id="Group-4" transform="translate(5.836094, 6.882106)" fill="#FFED00">
                    <rect id="Rectangle" x="2.94117647" y="4.41176471" width="5.88235294" height="25"></rect>
                    <rect id="Rectangle-Copy-2" x="0" y="0" width="11.7647059" height="7.35294118"></rect>
                </g>
                <g id="Group-4-Copy" transform="translate(0.953741, 0.058576)">
                    <rect id="Rectangle" fill="#FFED00" x="19.5882353" y="11.2352941" width="5.88235294" height="25"></rect>
                    <rect id="Rectangle-Copy-2" fill="#FFED00" x="16.6470588" y="6.82352941" width="11.7647059" height="7.35294118"></rect>
                    <rect id="Rectangle-Copy-7" fill="#FFFFFF" x="0" y="15.6470588" width="5.88235294" height="5.88235294" rx="2.94117647"></rect>
                    <rect id="Rectangle-Copy-8" fill="#FFFFFF" x="8.2941176" y="0.88235294" width="4" height="4" rx="2"></rect>
                </g>
                <g id="Group-4-Copy-2" transform="translate(29.365506, 6.882106)" fill="#FFED00">
                    <rect id="Rectangle" x="2.94117647" y="4.41176471" width="5.88235294" height="25"></rect>
                    <rect id="Rectangle-Copy-2" x="0" y="0" width="11.7647059" height="7.35294118"></rect>
                </g>
                <rect id="Rectangle-Copy-6" fill="#FFED00" x="4.36550582" y="33.352694" width="38.2352941" height="5.88235294"></rect>
                <polyline id="Path-6" fill="#FFED00" points="9.6971603 7.3420507 23.4831529 0.44905441 38.1890352 7.8019956 9.6971603 7.8019956"></polyline>
                <path d="M38.9243294,21.5879881 C39.2852998,21.5879881 39.5855181,21.8480987 39.6477769,22.1911122 L39.6596235,22.3232822 L39.6596235,32.6173999 C39.6596235,33.0234916 39.3304211,33.352694 38.9243294,33.352694 C38.5633589,33.352694 38.2631406,33.0925835 38.2008818,32.7495699 L38.1890352,32.6173999 L38.1890352,22.3232822 C38.1890352,21.9171905 38.5182376,21.5879881 38.9243294,21.5879881 Z" id="Path-7" fill="#000000"></path>
                <path d="M44.0713882,32.6173999 C44.4774799,32.6173999 44.8066823,32.9466023 44.8066823,33.352694 C44.8066823,33.7136644 44.5465718,34.0138828 44.2035582,34.0761416 L44.0713882,34.0879881 L8.77727053,34.0879881 C8.3711788,34.0879881 8.04197641,33.7587857 8.04197641,33.352694 C8.04197641,32.9917236 8.30208694,32.6915052 8.64510048,32.6292465 L8.77727053,32.6173999 L44.0713882,32.6173999 Z" id="Path-7-Copy-3" fill="#000000"></path>
                <path d="M33.0419764,39.2350469 C33.4480681,39.2350469 33.7772705,39.5642493 33.7772705,39.9703411 C33.7772705,40.3313115 33.51716,40.6315298 33.1741465,40.6937886 L33.0419764,40.7056352 L3.63021171,40.7056352 C3.22411998,40.7056352 2.89491759,40.3764328 2.89491759,39.9703411 C2.89491759,39.6093706 3.15502812,39.3091523 3.49804166,39.2468935 L3.63021171,39.2350469 L33.0419764,39.2350469 Z" id="Path-7-Copy-4" fill="#000000"></path>
                <path d="M44.8066823,39.2350469 C45.212774,39.2350469 45.5419764,39.5642493 45.5419764,39.9703411 C45.5419764,40.3313115 45.2818659,40.6315298 44.9388523,40.6937886 L44.8066823,40.7056352 L38.9243294,40.7056352 C38.5182376,40.7056352 38.1890352,40.3764328 38.1890352,39.9703411 C38.1890352,39.6093706 38.4491458,39.3091523 38.7921593,39.2468935 L38.9243294,39.2350469 L44.8066823,39.2350469 Z" id="Path-7-Copy-6" fill="#000000"></path>
                <path d="M27.1596235,24.5291646 C27.5205939,24.5291646 27.8208123,24.7892751 27.883071,25.1322887 L27.8949176,25.2644587 L27.8949176,32.6173999 C27.8949176,33.0234916 27.5657152,33.352694 27.1596235,33.352694 C26.798653,33.352694 26.4984347,33.0925835 26.4361759,32.7495699 L26.4243294,32.6173999 L26.4243294,25.2644587 C26.4243294,24.858367 26.7535317,24.5291646 27.1596235,24.5291646 Z" id="Path-7-Copy" fill="#000000"></path>
                <path d="M27.1596235,12.7644587 C27.5205939,12.7644587 27.8208123,13.0245692 27.883071,13.3675828 L27.8949176,13.4997528 L27.8949176,17.9115175 C27.8949176,18.3176093 27.5657152,18.6468117 27.1596235,18.6468117 C26.798653,18.6468117 26.4984347,18.3867011 26.4361759,18.0436876 L26.4243294,17.9115175 L26.4243294,13.4997528 C26.4243294,13.0936611 26.7535317,12.7644587 27.1596235,12.7644587 Z" id="Path-7-Copy-5" fill="#000000"></path>
                <path d="M15.3949176,12.7644587 C15.755888,12.7644587 16.0561064,13.0245692 16.1183651,13.3675828 L16.1302117,13.4997528 L16.1302117,32.6173999 C16.1302117,33.0234916 15.8010093,33.352694 15.3949176,33.352694 C15.0339472,33.352694 14.7337288,33.0925835 14.67147,32.7495699 L14.6596235,32.6173999 L14.6596235,13.4997528 C14.6596235,13.0936611 14.9888259,12.7644587 15.3949176,12.7644587 Z" id="Path-7-Copy-2" fill="#000000"></path>
                <path d="M21.2772705,14.2350469 C21.6833623,14.2350469 22.0125646,14.5642493 22.0125646,14.9703411 C22.0125646,15.3313115 21.7524541,15.6315298 21.4094406,15.6937886 L21.2772705,15.7056352 L18.3360941,15.7056352 C17.9300023,15.7056352 17.6007999,15.3764328 17.6007999,14.9703411 C17.6007999,14.6093706 17.8609105,14.3091523 18.203924,14.2468935 L18.3360941,14.2350469 L21.2772705,14.2350469 Z" id="Path-7-Copy-7" fill="#000000"></path>
                <path d="M9.5125646,14.2350469 C9.9186564,14.2350469 10.2478588,14.5642493 10.2478588,14.9703411 C10.2478588,15.3313115 9.9877482,15.6315298 9.6447347,15.6937886 L9.5125646,15.7056352 L6.57138818,15.7056352 C6.16529645,15.7056352 5.83609406,15.3764328 5.83609406,14.9703411 C5.83609406,14.6093706 6.09620459,14.3091523 6.43921813,14.2468935 L6.57138818,14.2350469 L9.5125646,14.2350469 Z" id="Path-7-Copy-8" fill="#000000"></path>
                <path d="M35.1042749,-3.15264923 C35.7887138,-3.14153492 36.3455655,-2.56176312 36.4133165,-1.82497262 L36.4201046,-1.65234429 L36.0893368,24.3889688 C36.0789614,25.2058245 35.4730225,25.8586958 34.7359344,25.8476349 C34.0514954,25.8365206 33.4946437,25.2567488 33.4268927,24.5199583 L33.4201046,24.34733 L33.7508723,-1.69398313 C33.7612478,-2.51083886 34.3671867,-3.16371011 35.1042749,-3.15264923 Z" id="Path-2" fill="#FF02C6" transform="translate(34.920105, 11.347493) rotate(45.000000) translate(-34.920105, -11.347493) "></path>
                <path d="M47.989458,9.9175994 C48.8016415,9.9175994 49.4600463,10.5760042 49.4600463,11.3881876 C49.4600463,12.142358 48.8923401,12.7639334 48.1609597,12.8488821 L47.989458,12.8587758 L22.779374,12.8587758 C21.9671906,12.8587758 21.3087858,12.2003711 21.3087858,11.3881876 C21.3087858,10.6340173 21.8764919,10.0124418 22.6078724,9.9274931 L22.779374,9.9175994 L47.989458,9.9175994 Z" id="Path-2-Copy" fill="#FF02C6" transform="translate(35.384416, 11.388188) rotate(45.000000) translate(-35.384416, -11.388188) "></path>
            </g>
        </g>
    </g>
</svg>