<?xml version="1.0" encoding="UTF-8"?>
<svg width="40px" height="50px" viewBox="0 0 40 50" version="1.1" xmlns="http://www.w3.org/2000/svg" xmlns:xlink="http://www.w3.org/1999/xlink">
    <title>Group 7</title>
    <g id="Page-1" stroke="none" stroke-width="1" fill="none" fill-rule="evenodd">
        <g id="Desktop-HD" transform="translate(-500.000000, -563.000000)">
            <g id="Group-7" transform="translate(500.218447, 563.000000)">
                <path d="M32.3818673,16.4770262 L17.2584105,10.1194434 C16.8795525,9.96022458 16.4537037,9.96014646 16.0749228,10.1194434 L0.951466049,16.4770262 C0.375462963,16.7192139 0,17.2885893 0,17.9200742 L0,25.6485954 C0,36.2902439 6.3525463,45.8626728 16.0834877,49.8841601 C16.4572531,50.0386133 16.8760031,50.0386133 17.2498457,49.8841601 C26.9806327,45.8627509 33.3333333,36.290322 33.3333333,25.6485954 L33.3333333,17.9200742 C33.3333333,17.2885893 32.9579475,16.7192139 32.3818673,16.4770262 Z" id="Path" fill="#FFFFFF"></path>
                <rect id="Rectangle" fill="#FFFFFF" x="21.6666667" y="0" width="11.6666667" height="11.6666667" rx="5.83333333"></rect>
                <g id="2438078" transform="translate(1.666667, 5.000000)" fill="#000000" fill-rule="nonzero">
                    <path d="M35.620054,7.01677842 L18.9842515,0.129397069 C18.5675077,-0.0430900361 18.0990741,-0.0431746716 17.6824151,0.129397069 L1.04661265,7.01677842 C0.413009259,7.2791484 0,7.89597177 0,8.58008034 L0,16.9526451 C0,28.4810975 6.98780093,38.8512288 17.6918364,43.2078401 C18.1029784,43.3751644 18.5636034,43.3751644 18.9748302,43.2078401 C29.678696,38.8513134 36.6666667,28.4811822 36.6666667,16.9526451 L36.6666667,8.58008034 C36.6666667,7.89597177 36.2537423,7.2791484 35.620054,7.01677842 Z M34.3333333,16.7317405 C34.3333333,26.9977097 28.1515152,36.4482173 18.3333333,40.6666667 C8.77751515,36.5608996 2.33333333,27.2759135 2.33333333,16.7317405 L2.33333333,9.14514532 L18.3333333,2.66666667 L34.3333333,9.14514532 L34.3333333,16.7317405 Z" id="Shape"></path>
                </g>
                <path d="M18.1202594,27.6460187 L25.4301233,20.4877913 C26.0942389,19.8374445 27.1710247,19.8373613 27.8352253,20.4877913 C28.499426,21.1382213 28.499341,22.1926823 27.8351403,22.8430291 L19.3228104,31.1788754 C18.6585247,31.8293887 17.5817389,31.8291388 16.9177083,31.1788754 L12.1648172,26.5245245 C11.5006165,25.8740945 11.5006165,24.8196335 12.1648172,24.1692867 C12.8290179,23.51894 13.9058036,23.5188567 14.5699192,24.1692867 L18.1202594,27.6460187 Z" id="Path" fill="#339400"></path>
            </g>
        </g>
    </g>
</svg>