<?xml version="1.0" encoding="UTF-8"?>
<svg width="62px" height="50px" viewBox="0 0 62 50" version="1.1" xmlns="http://www.w3.org/2000/svg" xmlns:xlink="http://www.w3.org/1999/xlink">
    <title>Group 6</title>
    <g id="Page-1" stroke="none" stroke-width="1" fill="none" fill-rule="evenodd">
        <g id="Desktop-HD" transform="translate(-1001.000000, -569.000000)">
            <g id="sem-cartao" transform="translate(1001.218447, 569.000000)">
                <g id="Group-6" transform="translate(0.167416, 0.000000)">
                    <rect id="Rectangle" fill="#FFFFFF" x="0.33483162" y="16" width="56" height="30" rx="3"></rect>
                    <rect id="Rectangle-Copy-8" fill="#FFFFFF" x="6.33483162" y="8" width="6" height="6" rx="3"></rect>
                    <rect id="Rectangle-Copy-9" fill="#FFFFFF" x="36.3348316" y="0" width="6" height="6" rx="3"></rect>
                    <path d="M7.842078,8 L45.7195999,8 L46.6354498,8.00739795 L47.5099557,8.03021615 L48.3438846,8.0693911 C55.5333021,8.49043632 58.0633407,10.9355135 58.3137834,18.3092977 L58.3325249,19.1652772 L58.3348316,19.6093511 L58.3348316,38.4731326 C58.3348316,39.3163982 57.6600144,40 56.8275852,40 C56.0546153,40 55.4175455,39.4105678 55.3304792,38.6511976 L55.3203389,38.4731326 L55.3190235,19.2314448 L55.3080148,18.5085612 C55.3051951,18.3916868 55.301865,18.276598 55.2979975,18.1632685 L55.2681273,17.5041922 L55.2240631,16.8860766 L55.1645094,16.3076594 C54.7581269,12.9537277 53.4453405,11.675361 49.9667583,11.2457984 L49.3667249,11.1818536 L48.7252886,11.1323652 L48.0411536,11.0960713 L47.3130243,11.0717097 L46.5396049,11.0580182 L45.7195999,11.0537349 L7.842078,11.0537349 C7.00964881,11.0537349 6.33483162,10.370133 6.33483162,9.52686744 C6.33483162,8.74383509 6.9166893,8.09847202 7.66630123,8.01027235 L7.842078,8 Z" id="Path-8" fill="#000000" fill-rule="nonzero"></path>
                    <rect id="Rectangle" fill="#000000" x="38.3348316" y="16" width="14" height="8" rx="2"></rect>
                    <path d="M3.78470826,28 L24.1997686,28 L25.0807589,28.0071263 L25.9219788,28.0291064 L26.7241662,28.0668426 C33.248477,28.4494667 35.7837964,30.5673131 36.2521827,36.7696331 L36.2985908,37.5336673 C36.3108351,37.7949808 36.3198953,38.0629798 36.3258944,38.3378146 L36.3348316,39.1829771 L36.3348316,48.5292095 C36.3348316,49.3415047 35.6856997,50 34.884955,50 C34.1414063,50 33.528585,49.4322157 33.4448327,48.7007347 L33.4350783,48.5292095 L33.4338131,38.81895 L33.4232233,38.1226156 L33.4008495,37.4675611 L33.3654452,36.8525707 C33.3583894,36.7533434 33.3507387,36.6557348 33.3424671,36.5597196 L33.2851802,36.0025458 C32.8942657,32.7717932 31.6314473,31.5403768 28.285269,31.1265907 L27.7080745,31.0649943 L27.0910529,31.0173236 L26.4329579,30.9823626 L25.7325431,30.9588957 L24.9885621,30.9457071 L24.1997686,30.941581 L3.78470826,30.941581 C2.9839635,30.941581 2.33483162,30.2830857 2.33483162,29.4707905 C2.33483162,28.7165164 2.89454227,28.0948555 3.61562201,28.0098951 L3.78470826,28 Z" id="Path" fill="#000000" fill-rule="nonzero" transform="translate(19.334832, 39.000000) rotate(-180.000000) translate(-19.334832, -39.000000) "></path>
                    <path d="M48.9280594,46 C49.7049983,46 50.3348316,46.8954305 50.3348316,48 C50.3348316,49.0256717 49.791761,49.8710143 49.0921188,49.9865445 L48.9280594,50 L41.7416038,50 C40.964665,50 40.3348316,49.1045695 40.3348316,48 C40.3348316,46.9743283 40.8779022,46.1289857 41.5775445,46.0134555 L41.7416038,46 L48.9280594,46 Z" id="Path" fill="#000000" fill-rule="nonzero"></path>
                    <path d="M2.54123947,12 L2.3709095,12.0026785 L2.23181702,12.0175023 C2.20847255,12.0216765 2.18435551,12.0268755 2.15842883,12.0333585 L1.97285654,12.0897389 L1.50417228,12.2593186 L1.06608273,12.6121582 C0.672541792,12.9470921 0.561203204,13.1415098 0.446583413,13.6939178 L0.33483162,14.3012021 L0.610712361,15.1925666 L0.682743087,15.3957612 L0.744371166,15.5378257 L0.803260194,15.636426 C0.813272533,15.6502189 0.823490062,15.6629368 0.834072438,15.6749478 L0.90322213,15.7414758 L0.988791759,15.8087048 C1.13519703,15.9568647 1.25926998,16.0518811 1.42597916,16.1657045 L1.65196284,16.3129229 L2.30681389,16.7041884 L3.29614878,17.2657012 L5.3128721,18.3776032 L9.66655961,20.7287424 L16.0636745,24.1390907 L35.7830051,34.542021 L57.1071077,45.719347 L57.2821615,45.8033848 C59.7195745,46.8688544 61.5688305,43.3232197 59.3194336,41.8972613 L59.1517445,41.7991028 L33.5899409,28.0206723 L21.3923165,21.490188 L13.5189746,17.3235426 L9.70242078,15.3383186 L7.65568659,14.2938559 L6.23580235,13.5845294 L5.06230119,13.0147454 L4.47125036,12.7371742 L3.53087696,12.320208 L3.0743293,12.1401147 L2.81679948,12.0540878 L2.68402837,12.0193169 L2.58145376,12.0021291 C2.5668298,12.0007068 2.55343061,12 2.54123947,12 Z" id="Path-9-Copy" fill="#FF02C6" fill-rule="nonzero"></path>
                    <rect id="Rectangle" fill="#000000" x="2.33483162" y="30" width="18" height="6"></rect>
                    <rect id="Rectangle-Copy-3" fill="#000000" x="50.3348316" y="30" width="6" height="6"></rect>
                </g>
            </g>
        </g>
    </g>
</svg>