<?xml version="1.0" encoding="UTF-8"?>
<svg width="39px" height="50px" viewBox="0 0 39 50" version="1.1" xmlns="http://www.w3.org/2000/svg" xmlns:xlink="http://www.w3.org/1999/xlink">
    <title>icone_secureY</title>
    <g id="Page-1" stroke="none" stroke-width="1" fill="none" fill-rule="evenodd">
        <g id="Desktop-HD-Copy" transform="translate(-240.000000, -1021.000000)" fill-rule="nonzero">
            <g id="icone_secureY" transform="translate(240.000000, 1021.000000)">
                <path d="M32.6003143,16.4770262 L17.4768575,10.1194434 C17.0979995,9.96022458 16.6721507,9.96014646 16.2933698,10.1194434 L1.16991305,16.4770262 C0.593909963,16.7192139 0.218447,17.2885893 0.218447,17.9200742 L0.218447,25.6485954 C0.218447,36.2902439 6.5709933,45.8626728 16.3019347,49.8841601 C16.6757001,50.0386133 17.0944501,50.0386133 17.4682927,49.8841601 C27.1990797,45.8627509 33.5517803,36.290322 33.5517803,25.6485954 L33.5517803,17.9200742 C33.5517803,17.2885893 33.1763945,16.7192139 32.6003143,16.4770262 Z" id="Path" fill="#FFED00"></path>
                <rect id="Rectangle" fill="#FFED00" x="21.8851137" y="0" width="11.6666667" height="11.6666667" rx="5.83333333"></rect>
                <g id="2438078" transform="translate(1.885114, 5.000000)" fill="#000000">
                    <path d="M35.620054,7.01677842 L18.9842515,0.129397069 C18.5675077,-0.0430900361 18.0990741,-0.0431746716 17.6824151,0.129397069 L1.04661265,7.01677842 C0.413009259,7.2791484 0,7.89597177 0,8.58008034 L0,16.9526451 C0,28.4810975 6.98780093,38.8512288 17.6918364,43.2078401 C18.1029784,43.3751644 18.5636034,43.3751644 18.9748302,43.2078401 C29.678696,38.8513134 36.6666667,28.4811822 36.6666667,16.9526451 L36.6666667,8.58008034 C36.6666667,7.89597177 36.2537423,7.2791484 35.620054,7.01677842 Z M34.3333333,16.7317405 C34.3333333,26.9977097 28.1515152,36.4482173 18.3333333,40.6666667 C8.77751515,36.5608996 2.33333333,27.2759135 2.33333333,16.7317405 L2.33333333,9.14514532 L18.3333333,2.66666667 L34.3333333,9.14514532 L34.3333333,16.7317405 Z" id="Shape"></path>
                </g>
                <path d="M18.3387064,27.6460187 L25.6485703,20.4877913 C26.3126859,19.8374445 27.3894717,19.8373613 28.0536723,20.4877913 C28.717873,21.1382213 28.717788,22.1926823 28.0535873,22.8430291 L19.5412574,31.1788754 C18.8769717,31.8293887 17.8001859,31.8291388 17.1361553,31.1788754 L12.3832642,26.5245245 C11.7190635,25.8740945 11.7190635,24.8196335 12.3832642,24.1692867 C13.0474649,23.51894 14.1242506,23.5188567 14.7883662,24.1692867 L18.3387064,27.6460187 Z" id="Path" fill="#339400"></path>
            </g>
        </g>
    </g>
</svg>