<?xml version="1.0" encoding="UTF-8"?>
<svg width="49px" height="53px" viewBox="0 0 49 53" version="1.1" xmlns="http://www.w3.org/2000/svg" xmlns:xlink="http://www.w3.org/1999/xlink">
    <title>icone_parcela_baixa</title>
    <g id="Page-1" stroke="none" stroke-width="1" fill="none" fill-rule="evenodd">
        <g id="VirtusPay#Hotsite-Mobile-img4" transform="translate(-50.000000, -2895.000000)">
            <g id="Group-25" transform="translate(22.000000, 2764.000000)">
                <g transform="translate(0.000000, 98.000000)" id="icone_parcela_baixa">
                    <g transform="translate(28.000000, 33.000000)">
                        <polygon id="Path-5" fill="#FFED00" points="39.5026817 18.5242827 39.5026817 26.7976145 45.6596225 26.7976145 25.3619619 47.0150679 5.89491661 27.6249477 13.7407855 27.6249477 13.7407855 14.3876169"></polygon>
                        <path d="M20,36 L20,26 L18.1437126,26 L15,29.1634183 L16.2125749,30.4377811 L17.8742515,28.7436282 L17.8742515,36 L20,36 Z M24.9236641,36 C27.3816794,36 29,34.6892489 29,32.5979381 C29,30.6097202 27.4580153,29.4167894 25.7328244,29.4167894 C24.8015267,29.4167894 23.9770992,29.7702504 23.4885496,30.2415317 L23.4885496,27.8409426 L28.3129771,27.8409426 L28.3129771,26 L21.3206107,26 L21.3206107,31.640648 L22.8320611,32.0235641 C23.4427481,31.4639175 24.129771,31.2282769 24.9694656,31.2282769 C26.129771,31.2282769 26.8015267,31.8173785 26.8015267,32.6863034 C26.8015267,33.4815906 26.1145038,34.1443299 24.9083969,34.1443299 C23.8396947,34.1443299 22.8931298,33.7614138 22.2061069,33.0692194 L21,34.5272459 C21.870229,35.4403535 23.1526718,36 24.9236641,36 Z M30.504451,36 L32,33.8050975 L33.4866469,36 L35,36 L32.8456973,32.9145427 L34.8664688,30 L33.3442136,30 L32,32.0509745 L30.6379822,30 L29.1335312,30 L31.1543027,32.9235382 L29,36 L30.504451,36 Z" id="15X" fill="#339400" fill-rule="nonzero"></path>
                        <rect id="Rectangle" fill="#FFED00" x="13.0321715" y="0.11310707" width="7.1372549" height="7.1372549" rx="3.56862745"></rect>
                        <rect id="Rectangle" fill="#FFED00" x="23.2282499" y="6.23075413" width="7.1372549" height="7.1372549" rx="3.56862745"></rect>
                        <rect id="Rectangle" fill="#FFED00" x="33.4243284" y="2.15232276" width="7.1372549" height="7.1372549" rx="3.56862745"></rect>
                        <line x1="44.7029371" y1="35.8348345" x2="44.7029371" y2="42.8264311" id="Path-2" stroke="#000000" stroke-width="2" stroke-linecap="round" stroke-linejoin="round"></line>
                        <line x1="47.9895429" y1="39.2233645" x2="40.9979462" y2="39.2233645" id="Path-2-Copy" stroke="#000000" stroke-width="2" stroke-linecap="round" stroke-linejoin="round"></line>
                        <polyline id="Path-3" stroke="#000000" stroke-width="2" stroke-linecap="round" stroke-linejoin="round" points="11.0151289 12.3484012 11.365885 29.85922 3.85570093 29.85922 24.7576617 51.0934992 45.6596225 29.85922 37.6191707 29.85922 37.6191707 20.2665408"></polyline>
                        <line x1="37.5027597" y1="16.4268326" x2="37.5027597" y2="8.26996981" id="Path-4" stroke="#000000" stroke-width="2" stroke-linecap="round"></line>
                        <line x1="15.9737162" y1="14.7460633" x2="15.9737162" y2="11.3473705" id="Path-4-Copy" stroke="#000000" stroke-width="2" stroke-linecap="round"></line>
                        <line x1="10.875677" y1="7.57575032" x2="10.875677" y2="2.22280915" id="Path-4-Copy-3" stroke="#000000" stroke-width="2" stroke-linecap="round"></line>
                        <line x1="27.3066813" y1="11.3287933" x2="27.3066813" y2="3.1719306" id="Path-4-Copy-2" stroke="#000000" stroke-width="2" stroke-linecap="round"></line>
                        <g id="Group-3" transform="translate(0.796877, 37.838597)" stroke="#000000" stroke-linecap="round" stroke-linejoin="round" stroke-width="2">
                            <line x1="3.87365321" y1="1.05506074" x2="3.87365321" y2="8.04665738" id="Path-2"></line>
                            <line x1="7.42795958" y1="4.73983013" x2="0.436362939" y2="4.73983013" id="Path-2-Copy"></line>
                        </g>
                    </g>
                </g>
            </g>
        </g>
    </g>
</svg>