<?xml version="1.0" encoding="UTF-8"?>
<svg width="61px" height="50px" viewBox="0 0 61 50" version="1.1" xmlns="http://www.w3.org/2000/svg" xmlns:xlink="http://www.w3.org/1999/xlink">
    <title>icone_cardY</title>
    <g id="Page-1" stroke="none" stroke-width="1" fill="none" fill-rule="evenodd">
        <g id="Desktop-HD-Copy" transform="translate(-407.000000, -1021.000000)" fill-rule="nonzero">
            <g id="icone_cardY" transform="translate(407.000000, 1021.000000)">
                <rect id="Rectangle" fill="#FFED00" x="0.72069462" y="16" width="56" height="30" rx="3"></rect>
                <rect id="Rectangle-Copy-8" fill="#FFED00" x="6.72069462" y="8" width="6" height="6" rx="3"></rect>
                <rect id="Rectangle-Copy-9" fill="#FFED00" x="36.7206946" y="0" width="6" height="6" rx="3"></rect>
                <path d="M8.227941,8 L46.1054629,8 L47.0213128,8.00739795 L47.8958187,8.03021615 L48.7297476,8.0693911 C55.9191651,8.49043632 58.4492037,10.9355135 58.6996464,18.3092977 L58.7183879,19.1652772 L58.7206946,19.6093511 L58.7206946,38.4731326 C58.7206946,39.3163982 58.0458774,40 57.2134482,40 C56.4404783,40 55.8034085,39.4105678 55.7163422,38.6511976 L55.7062019,38.4731326 L55.7048865,19.2314448 L55.6938778,18.5085612 C55.6910581,18.3916868 55.687728,18.276598 55.6838605,18.1632685 L55.6539903,17.5041922 L55.6099261,16.8860766 L55.5503724,16.3076594 C55.1439899,12.9537277 53.8312035,11.675361 50.3526213,11.2457984 L49.7525879,11.1818536 L49.1111516,11.1323652 L48.4270166,11.0960713 L47.6988873,11.0717097 L46.9254679,11.0580182 L46.1054629,11.0537349 L8.227941,11.0537349 C7.39551181,11.0537349 6.72069462,10.370133 6.72069462,9.52686744 C6.72069462,8.74383509 7.3025523,8.09847202 8.05216423,8.01027235 L8.227941,8 Z" id="Path-8" fill="#000000"></path>
                <rect id="Rectangle" fill="#000000" x="38.7206946" y="16" width="14" height="8" rx="2"></rect>
                <path d="M4.17057204,28 L24.5856324,28 L25.4666227,28.0071263 L26.3078426,28.0291064 L27.11003,28.0668426 C33.6343408,28.4494667 36.1696602,30.5673131 36.6380465,36.7696331 L36.6844546,37.5336673 C36.6966989,37.7949808 36.7057591,38.0629798 36.7117582,38.3378146 L36.7206954,39.1829771 L36.7206954,48.5292095 C36.7206954,49.3415047 36.0715635,50 35.2708188,50 C34.5272701,50 33.9144488,49.4322157 33.8306965,48.7007347 L33.8209421,48.5292095 L33.8196769,38.81895 L33.8090871,38.1226156 L33.7867133,37.4675611 L33.751309,36.8525707 C33.7442532,36.7533434 33.7366025,36.6557348 33.7283309,36.5597196 L33.671044,36.0025458 C33.2801295,32.7717932 32.0173111,31.5403768 28.6711328,31.1265907 L28.0939383,31.0649943 L27.4769167,31.0173236 L26.8188217,30.9823626 L26.1184069,30.9588957 L25.3744259,30.9457071 L24.5856324,30.941581 L4.17057204,30.941581 C3.36982728,30.941581 2.7206954,30.2830857 2.7206954,29.4707905 C2.7206954,28.7165164 3.28040605,28.0948555 4.00148579,28.0098951 L4.17057204,28 Z" id="Path" fill="#000000" transform="translate(19.720695, 39.000000) rotate(-180.000000) translate(-19.720695, -39.000000) "></path>
                <path d="M49.3139224,46 C50.0908613,46 50.7206946,46.8954305 50.7206946,48 C50.7206946,49.0256717 50.177624,49.8710143 49.4779818,49.9865445 L49.3139224,50 L42.1274668,50 C41.350528,50 40.7206946,49.1045695 40.7206946,48 C40.7206946,46.9743283 41.2637652,46.1289857 41.9634075,46.0134555 L42.1274668,46 L49.3139224,46 Z" id="Path" fill="#000000"></path>
                <path d="M2.92710247,12 L2.7567725,12.0026785 L2.61768002,12.0175023 C2.59433555,12.0216765 2.57021851,12.0268755 2.54429183,12.0333585 L2.35871954,12.0897389 L1.89003528,12.2593186 L1.45194573,12.6121582 C1.05840479,12.9470921 0.947066204,13.1415098 0.832446413,13.6939178 L0.72069462,14.3012021 L0.996575361,15.1925666 L1.06860609,15.3957612 L1.13023417,15.5378257 L1.18912319,15.636426 C1.19913553,15.6502189 1.20935306,15.6629368 1.21993544,15.6749478 L1.28908513,15.7414758 L1.37465476,15.8087048 C1.52106003,15.9568647 1.64513298,16.0518811 1.81184216,16.1657045 L2.03782584,16.3129229 L2.69267689,16.7041884 L3.68201178,17.2657012 L5.6987351,18.3776032 L10.0524226,20.7287424 L16.4495375,24.1390907 L36.1688681,34.542021 L57.4929707,45.719347 L57.6680245,45.8033848 C60.1054375,46.8688544 61.9546935,43.3232197 59.7052966,41.8972613 L59.5376075,41.7991028 L33.9758039,28.0206723 L21.7781795,21.490188 L13.9048376,17.3235426 L10.0882838,15.3383186 L8.04154959,14.2938559 L6.62166535,13.5845294 L5.44816419,13.0147454 L4.85711336,12.7371742 L3.91673996,12.320208 L3.4601923,12.1401147 L3.20266248,12.0540878 L3.06989137,12.0193169 L2.96731676,12.0021291 C2.9526928,12.0007068 2.93929361,12 2.92710247,12 Z" id="Path-9-Copy" fill="#FF02C6"></path>
                <rect id="Rectangle" fill="#000000" x="2.72069462" y="30" width="18" height="6"></rect>
                <rect id="Rectangle-Copy-3" fill="#000000" x="50.7206946" y="30" width="6" height="6"></rect>
            </g>
        </g>
    </g>
</svg>