<svg width="36" height="10" viewBox="0 0 36 10" fill="none" xmlns="http://www.w3.org/2000/svg">
<rect x="0.949158" y="4" width="12" height="2" rx="1" fill="#39304B"/>
<path fill-rule="evenodd" clip-rule="evenodd" d="M18.7906 9.02398C18.5349 9.07457 18.2706 9.10109 18 9.10109C17.7295 9.10109 17.4651 9.07457 17.2094 9.02398L17.4035 8.043C17.5956 8.081 17.795 8.10109 18 8.10109C18.2051 8.10109 18.4044 8.081 18.5965 8.043L18.7906 9.02398ZM15.7493 8.41878L16.3056 7.58782C15.9725 7.36479 15.6855 7.07776 15.4624 6.74463L14.6315 7.30095C14.9272 7.7427 15.3075 8.12304 15.7493 8.41878ZM14.0263 5.8408L15.0072 5.64673C14.9692 5.45461 14.9492 5.25526 14.9492 5.05022V5.02512H13.9492V5.05022C13.9492 5.32076 13.9757 5.58511 14.0263 5.8408ZM13.9492 4.9749H14.9492V4.94979C14.9492 4.74476 14.9692 4.54541 15.0072 4.35329L14.0263 4.15922C13.9757 4.41491 13.9492 4.67925 13.9492 4.94979V4.9749ZM14.6315 2.69907L15.4624 3.25539C15.6855 2.92225 15.9725 2.63523 16.3056 2.4122L15.7493 1.58123C15.3075 1.87698 14.9272 2.25731 14.6315 2.69907ZM17.2094 0.97603C17.4651 0.925447 17.7295 0.898926 18 0.898926C18.2706 0.898926 18.5349 0.925447 18.7906 0.97603L18.5965 1.95702C18.4044 1.91901 18.2051 1.89893 18 1.89893C17.795 1.89893 17.5956 1.91901 17.4035 1.95702L17.2094 0.97603ZM20.2507 1.58123L19.6944 2.4122C20.0276 2.63523 20.3146 2.92225 20.5376 3.25539L21.3686 2.69907C21.0728 2.25731 20.6925 1.87698 20.2507 1.58123ZM21.9738 4.15922L20.9928 4.35329C21.0308 4.54541 21.0509 4.74476 21.0509 4.94979V4.9749H22.0509V4.94979C22.0509 4.67925 22.0244 4.41491 21.9738 4.15922ZM22.0509 5.02512H21.0509V5.05022C21.0509 5.25526 21.0308 5.45461 20.9928 5.64673L21.9738 5.8408C22.0244 5.58511 22.0509 5.32076 22.0509 5.05022V5.02512ZM21.3686 7.30095L20.5376 6.74463C20.3146 7.07776 20.0276 7.36479 19.6944 7.58781L20.2507 8.41878C20.6925 8.12304 21.0728 7.7427 21.3686 7.30095Z" fill="#39304B"/>
<rect x="23.0509" y="4" width="12" height="2" rx="1" fill="#39304B"/>
</svg>
