<svg width="34" height="9" viewBox="0 0 34 9" fill="none" xmlns="http://www.w3.org/2000/svg">
<path d="M0 4.30108C0 3.74879 0.447715 3.30108 1 3.30108H3.59885C4.15113 3.30108 4.59885 3.74879 4.59885 4.30108V4.30108C4.59885 4.85336 4.15113 5.30108 3.59885 5.30108H1C0.447715 5.30108 0 4.85336 0 4.30108V4.30108Z" fill="#39304B"/>
<path fill-rule="evenodd" clip-rule="evenodd" d="M10.4403 8.32506C10.1846 8.37564 9.92028 8.40216 9.64974 8.40216C9.3792 8.40216 9.11486 8.37564 8.85917 8.32506L9.05324 7.34407C9.24536 7.38208 9.44471 7.40216 9.64974 7.40216C9.85478 7.40216 10.0541 7.38208 10.2462 7.34407L10.4403 8.32506ZM7.39902 7.71985L7.95534 6.88889C7.62221 6.66586 7.33518 6.37883 7.11215 6.0457L6.28118 6.60202C6.57693 7.04377 6.95727 7.42411 7.39902 7.71985ZM5.67598 5.14187L6.65697 4.9478C6.61896 4.75568 6.59888 4.55633 6.59888 4.3513V4.32619H5.59888V4.3513C5.59888 4.62183 5.6254 4.88618 5.67598 5.14187ZM5.59888 4.27597H6.59888V4.25086C6.59888 4.04583 6.61896 3.84648 6.65697 3.65436L5.67598 3.46029C5.6254 3.71598 5.59888 3.98032 5.59888 4.25086V4.27597ZM6.28118 2.00014L7.11215 2.55646C7.33518 2.22333 7.62221 1.9363 7.95534 1.71327L7.39902 0.882303C6.95727 1.17805 6.57693 1.55839 6.28118 2.00014ZM8.85917 0.277101C9.11486 0.226518 9.3792 0.199997 9.64974 0.199997C9.92028 0.199997 10.1846 0.226518 10.4403 0.277101L10.2462 1.25809C10.0541 1.22008 9.85478 1.2 9.64974 1.2C9.44471 1.2 9.24536 1.22008 9.05324 1.25809L8.85917 0.277101ZM11.9005 0.882303L11.3441 1.71327C11.6773 1.9363 11.9643 2.22333 12.1873 2.55646L13.0183 2.00014C12.7226 1.55839 12.3422 1.17805 11.9005 0.882303ZM13.6235 3.46029L12.6425 3.65436C12.6805 3.84648 12.7006 4.04583 12.7006 4.25086V4.27597H13.7006V4.25086C13.7006 3.98032 13.6741 3.71598 13.6235 3.46029ZM13.7006 4.32619H12.7006V4.3513C12.7006 4.55633 12.6805 4.75568 12.6425 4.9478L13.6235 5.14187C13.6741 4.88618 13.7006 4.62183 13.7006 4.3513V4.32619ZM13.0183 6.60202L12.1873 6.0457C11.9643 6.37883 11.6773 6.66586 11.3441 6.88889L11.9005 7.71985C12.3422 7.42411 12.7226 7.04377 13.0183 6.60202Z" fill="#39304B"/>
<path d="M14.7006 4.30108C14.7006 3.74879 15.1483 3.30108 15.7006 3.30108H18.2994C18.8517 3.30108 19.2994 3.74879 19.2994 4.30108V4.30108C19.2994 4.85336 18.8517 5.30108 18.2994 5.30108H15.7006C15.1483 5.30108 14.7006 4.85336 14.7006 4.30108V4.30108Z" fill="#39304B"/>
<path fill-rule="evenodd" clip-rule="evenodd" d="M25.1409 8.32506C24.8852 8.37564 24.6208 8.40216 24.3503 8.40216C24.0798 8.40216 23.8154 8.37564 23.5597 8.32506L23.7538 7.34407C23.9459 7.38208 24.1453 7.40216 24.3503 7.40216C24.5553 7.40216 24.7547 7.38208 24.9468 7.34407L25.1409 8.32506ZM22.0996 7.71985L22.6559 6.88889C22.3228 6.66586 22.0357 6.37883 21.8127 6.0457L20.9817 6.60202C21.2775 7.04377 21.6578 7.42411 22.0996 7.71985ZM20.3765 5.14187L21.3575 4.9478C21.3195 4.75568 21.2994 4.55633 21.2994 4.3513V4.32619H20.2994V4.3513C20.2994 4.62183 20.326 4.88618 20.3765 5.14187ZM20.2994 4.27597H21.2994V4.25086C21.2994 4.04583 21.3195 3.84648 21.3575 3.65436L20.3765 3.46029C20.326 3.71598 20.2994 3.98032 20.2994 4.25086V4.27597ZM20.9817 2.00014L21.8127 2.55646C22.0357 2.22333 22.3228 1.9363 22.6559 1.71327L22.0996 0.882303C21.6578 1.17805 21.2775 1.55839 20.9817 2.00014ZM23.5597 0.277101C23.8154 0.226518 24.0798 0.199997 24.3503 0.199997C24.6208 0.199997 24.8852 0.226518 25.1409 0.277101L24.9468 1.25809C24.7547 1.22008 24.5553 1.2 24.3503 1.2C24.1453 1.2 23.9459 1.22008 23.7538 1.25809L23.5597 0.277101ZM26.601 0.882303L26.0447 1.71327C26.3778 1.9363 26.6649 2.22333 26.8879 2.55646L27.7189 2.00014C27.4231 1.55839 27.0428 1.17805 26.601 0.882303ZM28.3241 3.46029L27.3431 3.65436C27.3811 3.84648 27.4012 4.04583 27.4012 4.25086V4.27597H28.4012V4.25086C28.4012 3.98032 28.3746 3.71598 28.3241 3.46029ZM28.4012 4.32619H27.4012V4.3513C27.4012 4.55633 27.3811 4.75568 27.3431 4.9478L28.3241 5.14187C28.3746 4.88618 28.4012 4.62183 28.4012 4.3513V4.32619ZM27.7189 6.60202L26.8879 6.0457C26.6649 6.37883 26.3778 6.66586 26.0447 6.88889L26.601 7.71985C27.0428 7.42411 27.4231 7.04377 27.7189 6.60202Z" fill="#39304B"/>
<path d="M29.4011 4.30108C29.4011 3.74879 29.8488 3.30108 30.4011 3.30108H33C33.5523 3.30108 34 3.74879 34 4.30108V4.30108C34 4.85336 33.5523 5.30108 33 5.30108H30.4011C29.8488 5.30108 29.4011 4.85336 29.4011 4.30108V4.30108Z" fill="#39304B"/>
</svg>
